<?xml version="1.0" encoding="utf-8"?>
<!-- Generator: Adobe Illustrator 22.1.0, SVG Export Plug-In . SVG Version: 6.00 Build 0)  -->
<svg version="1.1" id="Capa_1" xmlns="http://www.w3.org/2000/svg" xmlns:xlink="http://www.w3.org/1999/xlink" x="0px" y="0px"
	 viewBox="0 0 60 60" style="enable-background:new 0 0 60 60;" xml:space="preserve">
<style type="text/css">
	.st0{fill:#2182FD;}
</style>
<g>
	<path class="st0" d="M53.7,58.3L51,55.6v-35l-0.5-0.5L46,15.6V0H6v52h5v5h38.6l2.7,2.7c0.2,0.2,0.5,0.3,0.7,0.3s0.5-0.1,0.7-0.3
		C54.1,59.3,54.1,58.7,53.7,58.3z M47.6,20H36V8.4l10,10L47.6,20z M8,50V2h36v11.6l-8.1-8.1L35.4,5H11v45H8z M13,55v-3V7h21v15h15
		v31.6l-7.5-7.5c1.7-2.1,2.8-4.7,2.8-7.6c0-6.5-5.3-11.8-11.8-11.8S20.7,32,20.7,38.5S26,50.3,32.5,50.3c2.9,0,5.6-1.1,7.6-2.8
		l7.5,7.5H13z M32.5,48.3c-5.4,0-9.8-4.4-9.8-9.8s4.4-9.8,9.8-9.8s9.8,4.4,9.8,9.8S37.9,48.3,32.5,48.3z"/>
	<path class="st0" d="M26.6,36h6c0.6,0,1-0.4,1-1s-0.4-1-1-1h-6c-0.6,0-1,0.4-1,1S26.1,36,26.6,36z"/>
	<path class="st0" d="M38.6,40h-12c-0.6,0-1,0.4-1,1s0.4,1,1,1h12c0.6,0,1-0.4,1-1S39.2,40,38.6,40z"/>
</g>
</svg>
