<?xml version="1.0" encoding="utf-8"?>
<!-- Generator: Adobe Illustrator 22.1.0, SVG Export Plug-In . SVG Version: 6.00 Build 0)  -->
<svg version="1.1" id="Capa_1" xmlns="http://www.w3.org/2000/svg" xmlns:xlink="http://www.w3.org/1999/xlink" x="0px" y="0px"
	 viewBox="0 0 487 487" style="enable-background:new 0 0 487 487;" xml:space="preserve">
<style type="text/css">
	.st0{fill:#2182FD;}
</style>
<g>
	<g>
		<path class="st0" d="M16.8,285h39.7v158.7c0,9.4,7.7,17,17,17h116.2c9.4,0,17-7.6,17-17V327.5h70.8v116.2c0,9.4,7.6,17,17,17H405
			c9.4,0,17-7.6,17-17V285h48.2c6.8,0,13-4.3,15.6-10.5c2.5-6.2,1.1-13.6-3.7-18.4L260.5,31.4c-6.5-6.5-17.3-6.8-23.8-0.3L5.2,255.8
			c-5.1,4.8-6.5,12.2-4,18.7C3.8,281,10,285,16.8,285z M248,67.4L429.4,251H405c-9.4,0-17,7.7-17,17v158.7h-76.5V310.5
			c0-9.4-7.6-17-17-17H189.7c-9.4,0-17,7.6-17,17v116.2H90.5V268c0-9.4-7.7-17-17-17H58.8L248,67.4z"/>
	</g>
</g>
</svg>
