<?xml version="1.0" encoding="utf-8"?>
<!-- Generator: Adobe Illustrator 22.1.0, SVG Export Plug-In . SVG Version: 6.00 Build 0)  -->
<svg version="1.1" id="Capa_1" xmlns="http://www.w3.org/2000/svg" xmlns:xlink="http://www.w3.org/1999/xlink" x="0px" y="0px"
	 viewBox="0 0 480 480" style="enable-background:new 0 0 480 480;" xml:space="preserve">
<style type="text/css">
	.st0{fill:#2182FD;}
</style>
<g>
	<g>
		<path class="st0" d="M479.3,468.8l-45.2-103.6c-2.4-7.3-8.3-13-15.6-15.3l-116.8-37.2l-12.5-31.3l36.9-44.3
			c1.2-1.4,1.9-3.3,1.9-5.1v-16h8c13.2,0,24-10.8,24-24v-32c0-13.2-10.8-24-24-24h-8v-8h8c2.2,0,4.3-0.9,5.8-2.5
			c1.5-1.6,2.3-3.8,2.1-6l-5.9-82.3C336.6,16.3,319.1,0,298.2,0H184c-22.1,0-40,17.9-40,40v80c0,4.4,3.6,8,8,8v8h-8
			c-13.2,0-24,10.8-24,24v32c0,13.2,10.8,24,24,24h8v16c0,1.9,0.7,3.7,1.8,5.1l36.8,44.2l-14.6,32.8l-40.3,12.6l-74.3,23.2
			c-7.3,2.3-13.2,8-15.4,14.7L0.7,468.8c-1.1,2.5-0.8,5.3,0.6,7.6c1.5,2.3,4,3.6,6.7,3.6h464c2.7,0,5.2-1.4,6.7-3.6
			C480.2,474.1,480.4,471.3,479.3,468.8z M328,152h8c4.4,0,8,3.6,8,8v32c0,4.4-3.6,8-8,8h-8V152z M152,200h-8c-4.4,0-8-3.6-8-8v-32
			c0-4.4,3.6-8,8-8h8V200z M298.3,329.1l28.6,8.9l-51.6,42.6l-21.1-26.4L298.3,329.1z M261.3,391.4L240,412.7l-21.3-21.3l21.3-26.6
			L261.3,391.4z M192.8,315.8l11.4-25.5l32.8,13.1c1,0.4,2,0.6,3,0.6s2-0.2,3-0.6l32.6-13l10.4,26.1l-46,26.3L192.8,315.8z M160,40
			c0-13.2,10.8-24,24-24h114.2c12.5,0,23,9.8,23.9,22.3l5.3,73.7H312h-40c-37.2,0-56-13.5-56-40c0-4.4-3.6-8-8-8s-8,3.6-8,8
			c0,22.1-17.9,40-40,40L160,40L160,40z M168,229.1V127.4c16.8-2.4,31.2-12.3,39.8-26.2c10.9,17.3,33,26.8,64.2,26.8h40v101.1
			l-36.8,44.2L240,287.4l-35.2-14.1L168,229.1z M182,329l45.9,25.4l-21,26.2l-52.2-43.1L182,329z M201.8,464H20.2L61,370.3
			c0.8-2.4,2.8-4.3,5.2-5.1l70.2-21.9l66.3,54.7l12.5,12.5L201.8,464z M218.3,464l10.1-40.4l6,6c1.6,1.6,3.6,2.3,5.7,2.3
			s4.1-0.8,5.7-2.3l6-6l10.1,40.4H218.3z M278.2,464l-13.4-53.5l10.7-10.7c1.3-0.2,2.6-0.7,3.7-1.6l66-54.4l3.5,1.1l-28.2,84.6
			c-0.9,2.6-0.4,5.4,1.3,7.5l21.6,27H278.2z M337,430.4l26.9-80.8l12.9,4l6.9,83.3L360.7,460L337,430.4z M379.3,464l18.3-18.3
			c1.7-1.7,2.5-4,2.3-6.3l-6.7-80.6l20.5,6.4c2.4,0.8,4.4,2.7,5.5,5.8l40.5,93H379.3z"/>
	</g>
</g>
</svg>
